<svg xmlns="http://www.w3.org/2000/svg" xmlns:xlink="http://www.w3.org/1999/xlink" width="500" zoomAndPan="magnify" viewBox="0 0 375 374.999991" height="500" preserveAspectRatio="xMidYMid meet" version="1.0"><defs><clipPath id="1e09dbed73"><path d="M 174 126 L 251 126 L 251 234.886719 L 174 234.886719 Z M 174 126 " clip-rule="nonzero"/></clipPath><clipPath id="7c737c11ce"><path d="M 124 84.886719 L 201 84.886719 L 201 194 L 124 194 Z M 124 84.886719 " clip-rule="nonzero"/></clipPath></defs><g clip-path="url(#1e09dbed73)"><path fill="#ffffff" d="M 247.015625 169.070312 L 235.953125 158.496094 L 200.988281 126.371094 L 185.914062 140.683594 C 184.535156 142.558594 184.628906 145.089844 186.195312 146.847656 L 199.976562 158.714844 L 199.929688 158.734375 L 214.738281 172.886719 C 216.492188 174.835938 216.449219 177.722656 214.609375 179.597656 L 174.675781 217.546875 L 192.832031 234.878906 L 247.015625 183.398438 C 251.167969 179.441406 251.175781 173.027344 247.015625 169.050781 Z M 247.015625 169.070312 " fill-opacity="1" fill-rule="evenodd"/></g><g clip-path="url(#7c737c11ce)"><path fill="#ffffff" d="M 127.914062 150.714844 L 138.976562 161.265625 L 173.960938 193.386719 L 189.027344 179.074219 C 190.394531 177.21875 190.300781 174.667969 188.746094 172.914062 L 174.964844 161.027344 L 175.011719 161 L 160.191406 146.851562 C 158.457031 144.914062 158.503906 142.015625 160.332031 140.148438 L 200.265625 102.183594 L 182.105469 84.886719 L 127.921875 136.375 C 123.769531 140.332031 123.769531 146.75 127.921875 150.714844 Z M 127.914062 150.714844 " fill-opacity="1" fill-rule="evenodd"/></g></svg>